<mxfile host="app.diagrams.net" modified="2023-10-18T17:47:00.309Z" agent="Mozilla/5.0 (X11; Linux x86_64; rv:109.0) Gecko/20100101 Firefox/114.0" etag="wIb-2d0-J19zOSRqDSM7" version="22.0.4" type="github">
  <diagram name="Página-1" id="pFsK3HNh0K1RL6zdb9fG">
    <mxGraphModel dx="1434" dy="795" grid="1" gridSize="10" guides="1" tooltips="1" connect="1" arrows="1" fold="1" page="1" pageScale="1" pageWidth="827" pageHeight="1169" math="0" shadow="0">
      <root>
        <mxCell id="0" />
        <mxCell id="1" parent="0" />
        <mxCell id="tli_p0ZEPbEqmwboCu_G-58" style="edgeStyle=orthogonalEdgeStyle;rounded=0;orthogonalLoop=1;jettySize=auto;html=1;exitX=0.5;exitY=1;exitDx=0;exitDy=0;entryX=0.5;entryY=0;entryDx=0;entryDy=0;endArrow=none;endFill=0;" edge="1" parent="1" source="tli_p0ZEPbEqmwboCu_G-1" target="tli_p0ZEPbEqmwboCu_G-49">
          <mxGeometry relative="1" as="geometry" />
        </mxCell>
        <mxCell id="tli_p0ZEPbEqmwboCu_G-1" value="cliente" style="rounded=1;arcSize=10;whiteSpace=wrap;html=1;align=center;fillColor=#dae8fc;strokeColor=#6c8ebf;" vertex="1" parent="1">
          <mxGeometry x="190" y="510" width="100" height="40" as="geometry" />
        </mxCell>
        <mxCell id="tli_p0ZEPbEqmwboCu_G-54" style="edgeStyle=orthogonalEdgeStyle;rounded=0;orthogonalLoop=1;jettySize=auto;html=1;exitX=1;exitY=0;exitDx=0;exitDy=0;entryX=0;entryY=1;entryDx=0;entryDy=0;endArrow=none;endFill=0;" edge="1" parent="1" source="tli_p0ZEPbEqmwboCu_G-2" target="tli_p0ZEPbEqmwboCu_G-37">
          <mxGeometry relative="1" as="geometry" />
        </mxCell>
        <mxCell id="tli_p0ZEPbEqmwboCu_G-56" style="edgeStyle=orthogonalEdgeStyle;rounded=0;orthogonalLoop=1;jettySize=auto;html=1;exitX=1;exitY=0.5;exitDx=0;exitDy=0;endArrow=none;endFill=0;" edge="1" parent="1" source="tli_p0ZEPbEqmwboCu_G-2" target="tli_p0ZEPbEqmwboCu_G-53">
          <mxGeometry relative="1" as="geometry" />
        </mxCell>
        <mxCell id="tli_p0ZEPbEqmwboCu_G-57" style="edgeStyle=orthogonalEdgeStyle;rounded=0;orthogonalLoop=1;jettySize=auto;html=1;exitX=1;exitY=1;exitDx=0;exitDy=0;entryX=0;entryY=0;entryDx=0;entryDy=0;endArrow=none;endFill=0;" edge="1" parent="1" source="tli_p0ZEPbEqmwboCu_G-2" target="tli_p0ZEPbEqmwboCu_G-55">
          <mxGeometry relative="1" as="geometry" />
        </mxCell>
        <mxCell id="tli_p0ZEPbEqmwboCu_G-59" value="" style="edgeStyle=orthogonalEdgeStyle;rounded=0;orthogonalLoop=1;jettySize=auto;html=1;endArrow=none;endFill=0;" edge="1" parent="1" source="tli_p0ZEPbEqmwboCu_G-2" target="tli_p0ZEPbEqmwboCu_G-50">
          <mxGeometry relative="1" as="geometry" />
        </mxCell>
        <mxCell id="tli_p0ZEPbEqmwboCu_G-2" value="proveedor" style="rounded=1;arcSize=10;whiteSpace=wrap;html=1;align=center;fillColor=#dae8fc;strokeColor=#6c8ebf;" vertex="1" parent="1">
          <mxGeometry x="450" y="510" width="100" height="40" as="geometry" />
        </mxCell>
        <mxCell id="tli_p0ZEPbEqmwboCu_G-11" style="edgeStyle=orthogonalEdgeStyle;rounded=0;orthogonalLoop=1;jettySize=auto;html=1;exitX=0.5;exitY=1;exitDx=0;exitDy=0;endArrow=none;endFill=0;" edge="1" parent="1" source="tli_p0ZEPbEqmwboCu_G-3" target="tli_p0ZEPbEqmwboCu_G-8">
          <mxGeometry relative="1" as="geometry" />
        </mxCell>
        <mxCell id="tli_p0ZEPbEqmwboCu_G-3" value="empresa" style="rounded=1;arcSize=10;whiteSpace=wrap;html=1;align=center;fillColor=#dae8fc;strokeColor=#6c8ebf;" vertex="1" parent="1">
          <mxGeometry x="321" y="320" width="100" height="40" as="geometry" />
        </mxCell>
        <mxCell id="tli_p0ZEPbEqmwboCu_G-9" style="edgeStyle=orthogonalEdgeStyle;rounded=0;orthogonalLoop=1;jettySize=auto;html=1;exitX=0.5;exitY=0;exitDx=0;exitDy=0;entryX=0.5;entryY=0;entryDx=0;entryDy=0;endArrow=none;endFill=0;" edge="1" parent="1" source="tli_p0ZEPbEqmwboCu_G-8" target="tli_p0ZEPbEqmwboCu_G-2">
          <mxGeometry relative="1" as="geometry" />
        </mxCell>
        <mxCell id="tli_p0ZEPbEqmwboCu_G-10" style="edgeStyle=orthogonalEdgeStyle;rounded=0;orthogonalLoop=1;jettySize=auto;html=1;exitX=0.5;exitY=1;exitDx=0;exitDy=0;entryX=0.5;entryY=0;entryDx=0;entryDy=0;endArrow=none;endFill=0;" edge="1" parent="1" source="tli_p0ZEPbEqmwboCu_G-8" target="tli_p0ZEPbEqmwboCu_G-1">
          <mxGeometry relative="1" as="geometry" />
        </mxCell>
        <mxCell id="tli_p0ZEPbEqmwboCu_G-8" value="" style="triangle;whiteSpace=wrap;html=1;rotation=0;direction=south;fillColor=#d5e8d4;strokeColor=#82b366;" vertex="1" parent="1">
          <mxGeometry x="331" y="400" width="80" height="60" as="geometry" />
        </mxCell>
        <mxCell id="tli_p0ZEPbEqmwboCu_G-12" value="tipo" style="ellipse;whiteSpace=wrap;html=1;fillColor=#d5e8d4;strokeColor=#82b366;" vertex="1" parent="1">
          <mxGeometry x="430" y="380" width="30" height="30" as="geometry" />
        </mxCell>
        <mxCell id="tli_p0ZEPbEqmwboCu_G-16" style="edgeStyle=orthogonalEdgeStyle;rounded=0;orthogonalLoop=1;jettySize=auto;html=1;exitX=0;exitY=0.5;exitDx=0;exitDy=0;entryX=0.017;entryY=0.1;entryDx=0;entryDy=0;entryPerimeter=0;endArrow=none;endFill=0;" edge="1" parent="1" source="tli_p0ZEPbEqmwboCu_G-12" target="tli_p0ZEPbEqmwboCu_G-8">
          <mxGeometry relative="1" as="geometry" />
        </mxCell>
        <mxCell id="tli_p0ZEPbEqmwboCu_G-17" value="producto" style="rounded=1;arcSize=10;whiteSpace=wrap;html=1;align=center;fillColor=#dae8fc;strokeColor=#6c8ebf;" vertex="1" parent="1">
          <mxGeometry x="320" y="920" width="100" height="40" as="geometry" />
        </mxCell>
        <mxCell id="tli_p0ZEPbEqmwboCu_G-32" style="edgeStyle=orthogonalEdgeStyle;rounded=0;orthogonalLoop=1;jettySize=auto;html=1;exitX=1;exitY=0.5;exitDx=0;exitDy=0;entryX=0;entryY=0.5;entryDx=0;entryDy=0;endArrow=none;endFill=0;" edge="1" parent="1" source="tli_p0ZEPbEqmwboCu_G-18" target="tli_p0ZEPbEqmwboCu_G-3">
          <mxGeometry relative="1" as="geometry" />
        </mxCell>
        <mxCell id="tli_p0ZEPbEqmwboCu_G-18" value="NIF" style="ellipse;whiteSpace=wrap;html=1;align=center;" vertex="1" parent="1">
          <mxGeometry x="270" y="320" width="40" height="30" as="geometry" />
        </mxCell>
        <mxCell id="tli_p0ZEPbEqmwboCu_G-29" style="edgeStyle=orthogonalEdgeStyle;rounded=0;orthogonalLoop=1;jettySize=auto;html=1;exitX=0.5;exitY=1;exitDx=0;exitDy=0;entryX=0.25;entryY=0;entryDx=0;entryDy=0;endArrow=none;endFill=0;" edge="1" parent="1" source="tli_p0ZEPbEqmwboCu_G-20" target="tli_p0ZEPbEqmwboCu_G-3">
          <mxGeometry relative="1" as="geometry" />
        </mxCell>
        <mxCell id="tli_p0ZEPbEqmwboCu_G-20" value="dirección" style="ellipse;whiteSpace=wrap;html=1;align=center;" vertex="1" parent="1">
          <mxGeometry x="320" y="270" width="60" height="30" as="geometry" />
        </mxCell>
        <mxCell id="tli_p0ZEPbEqmwboCu_G-21" value="población" style="ellipse;whiteSpace=wrap;html=1;align=center;" vertex="1" parent="1">
          <mxGeometry x="405" y="268" width="70" height="30" as="geometry" />
        </mxCell>
        <mxCell id="tli_p0ZEPbEqmwboCu_G-22" value="teléfono" style="ellipse;whiteSpace=wrap;html=1;align=center;" vertex="1" parent="1">
          <mxGeometry x="365" y="243" width="50" height="30" as="geometry" />
        </mxCell>
        <mxCell id="tli_p0ZEPbEqmwboCu_G-23" value="fax" style="ellipse;whiteSpace=wrap;html=1;align=center;" vertex="1" parent="1">
          <mxGeometry x="280" y="280" width="40" height="30" as="geometry" />
        </mxCell>
        <mxCell id="tli_p0ZEPbEqmwboCu_G-26" style="edgeStyle=orthogonalEdgeStyle;rounded=0;orthogonalLoop=1;jettySize=auto;html=1;exitX=0.5;exitY=1;exitDx=0;exitDy=0;entryX=1;entryY=0.25;entryDx=0;entryDy=0;endArrow=none;endFill=0;" edge="1" parent="1" source="tli_p0ZEPbEqmwboCu_G-24" target="tli_p0ZEPbEqmwboCu_G-3">
          <mxGeometry relative="1" as="geometry" />
        </mxCell>
        <mxCell id="tli_p0ZEPbEqmwboCu_G-24" value="&lt;u&gt;ID&lt;/u&gt;" style="ellipse;whiteSpace=wrap;html=1;align=center;fillColor=#ffe6cc;strokeColor=#d79b00;" vertex="1" parent="1">
          <mxGeometry x="430" y="300" width="50" height="30" as="geometry" />
        </mxCell>
        <mxCell id="tli_p0ZEPbEqmwboCu_G-25" value="" style="shape=requiredInterface;html=1;verticalLabelPosition=bottom;sketch=0;rotation=90;" vertex="1" parent="1">
          <mxGeometry x="345" y="358" width="50" height="160" as="geometry" />
        </mxCell>
        <mxCell id="tli_p0ZEPbEqmwboCu_G-27" style="edgeStyle=orthogonalEdgeStyle;rounded=0;orthogonalLoop=1;jettySize=auto;html=1;exitX=0;exitY=1;exitDx=0;exitDy=0;entryX=0.85;entryY=-0.025;entryDx=0;entryDy=0;entryPerimeter=0;endArrow=none;endFill=0;" edge="1" parent="1" source="tli_p0ZEPbEqmwboCu_G-21" target="tli_p0ZEPbEqmwboCu_G-3">
          <mxGeometry relative="1" as="geometry" />
        </mxCell>
        <mxCell id="tli_p0ZEPbEqmwboCu_G-28" style="edgeStyle=orthogonalEdgeStyle;rounded=0;orthogonalLoop=1;jettySize=auto;html=1;exitX=0.5;exitY=1;exitDx=0;exitDy=0;entryX=0.6;entryY=-0.025;entryDx=0;entryDy=0;entryPerimeter=0;endArrow=none;endFill=0;" edge="1" parent="1" source="tli_p0ZEPbEqmwboCu_G-22" target="tli_p0ZEPbEqmwboCu_G-3">
          <mxGeometry relative="1" as="geometry" />
        </mxCell>
        <mxCell id="tli_p0ZEPbEqmwboCu_G-30" style="edgeStyle=orthogonalEdgeStyle;rounded=0;orthogonalLoop=1;jettySize=auto;html=1;exitX=1;exitY=1;exitDx=0;exitDy=0;entryX=0.12;entryY=0.075;entryDx=0;entryDy=0;entryPerimeter=0;endArrow=none;endFill=0;" edge="1" parent="1" source="tli_p0ZEPbEqmwboCu_G-23" target="tli_p0ZEPbEqmwboCu_G-3">
          <mxGeometry relative="1" as="geometry" />
        </mxCell>
        <mxCell id="tli_p0ZEPbEqmwboCu_G-44" style="edgeStyle=orthogonalEdgeStyle;rounded=0;orthogonalLoop=1;jettySize=auto;html=1;exitX=1;exitY=0.5;exitDx=0;exitDy=0;entryX=0;entryY=0.5;entryDx=0;entryDy=0;endArrow=none;endFill=0;" edge="1" parent="1" source="tli_p0ZEPbEqmwboCu_G-33" target="tli_p0ZEPbEqmwboCu_G-1">
          <mxGeometry relative="1" as="geometry" />
        </mxCell>
        <mxCell id="tli_p0ZEPbEqmwboCu_G-33" value="provincia" style="ellipse;whiteSpace=wrap;html=1;align=center;" vertex="1" parent="1">
          <mxGeometry x="70" y="510" width="70" height="30" as="geometry" />
        </mxCell>
        <mxCell id="tli_p0ZEPbEqmwboCu_G-43" style="edgeStyle=orthogonalEdgeStyle;rounded=0;orthogonalLoop=1;jettySize=auto;html=1;exitX=1;exitY=1;exitDx=0;exitDy=0;entryX=0;entryY=0.25;entryDx=0;entryDy=0;endArrow=none;endFill=0;" edge="1" parent="1" source="tli_p0ZEPbEqmwboCu_G-34" target="tli_p0ZEPbEqmwboCu_G-1">
          <mxGeometry relative="1" as="geometry">
            <Array as="points">
              <mxPoint x="138" y="510" />
              <mxPoint x="170" y="510" />
              <mxPoint x="170" y="520" />
            </Array>
          </mxGeometry>
        </mxCell>
        <mxCell id="tli_p0ZEPbEqmwboCu_G-34" value="&lt;div&gt;comunidad&lt;/div&gt;&lt;div&gt;autonoma&lt;br&gt;&lt;/div&gt;" style="ellipse;whiteSpace=wrap;html=1;align=center;" vertex="1" parent="1">
          <mxGeometry x="70" y="465" width="80" height="40" as="geometry" />
        </mxCell>
        <mxCell id="tli_p0ZEPbEqmwboCu_G-37" value="&lt;u&gt;CIF&lt;/u&gt;" style="ellipse;whiteSpace=wrap;html=1;align=center;fillColor=#ffe6cc;strokeColor=#d79b00;" vertex="1" parent="1">
          <mxGeometry x="560" y="480" width="50" height="30" as="geometry" />
        </mxCell>
        <mxCell id="tli_p0ZEPbEqmwboCu_G-45" style="edgeStyle=orthogonalEdgeStyle;rounded=0;orthogonalLoop=1;jettySize=auto;html=1;exitX=1;exitY=0;exitDx=0;exitDy=0;entryX=0;entryY=0.75;entryDx=0;entryDy=0;endArrow=none;endFill=0;" edge="1" parent="1" source="tli_p0ZEPbEqmwboCu_G-38" target="tli_p0ZEPbEqmwboCu_G-1">
          <mxGeometry relative="1" as="geometry" />
        </mxCell>
        <mxCell id="tli_p0ZEPbEqmwboCu_G-46" value="" style="edgeStyle=orthogonalEdgeStyle;rounded=0;orthogonalLoop=1;jettySize=auto;html=1;endArrow=none;endFill=0;" edge="1" parent="1" source="tli_p0ZEPbEqmwboCu_G-38" target="tli_p0ZEPbEqmwboCu_G-41">
          <mxGeometry relative="1" as="geometry" />
        </mxCell>
        <mxCell id="tli_p0ZEPbEqmwboCu_G-47" style="edgeStyle=orthogonalEdgeStyle;rounded=0;orthogonalLoop=1;jettySize=auto;html=1;exitX=0;exitY=1;exitDx=0;exitDy=0;entryX=1;entryY=0.5;entryDx=0;entryDy=0;endArrow=none;endFill=0;" edge="1" parent="1" source="tli_p0ZEPbEqmwboCu_G-38" target="tli_p0ZEPbEqmwboCu_G-40">
          <mxGeometry relative="1" as="geometry" />
        </mxCell>
        <mxCell id="tli_p0ZEPbEqmwboCu_G-38" value="portes" style="ellipse;whiteSpace=wrap;html=1;align=center;" vertex="1" parent="1">
          <mxGeometry x="130" y="550" width="70" height="30" as="geometry" />
        </mxCell>
        <mxCell id="tli_p0ZEPbEqmwboCu_G-42" style="edgeStyle=orthogonalEdgeStyle;rounded=0;orthogonalLoop=1;jettySize=auto;html=1;exitX=0.5;exitY=1;exitDx=0;exitDy=0;entryX=0;entryY=0;entryDx=0;entryDy=0;endArrow=none;endFill=0;" edge="1" parent="1" source="tli_p0ZEPbEqmwboCu_G-39" target="tli_p0ZEPbEqmwboCu_G-1">
          <mxGeometry relative="1" as="geometry" />
        </mxCell>
        <mxCell id="tli_p0ZEPbEqmwboCu_G-39" value="&lt;u&gt;ID&lt;/u&gt;" style="ellipse;whiteSpace=wrap;html=1;align=center;fillColor=#ffe6cc;strokeColor=#d79b00;" vertex="1" parent="1">
          <mxGeometry x="150" y="479.5" width="50" height="20.5" as="geometry" />
        </mxCell>
        <mxCell id="tli_p0ZEPbEqmwboCu_G-40" value="debidos" style="ellipse;whiteSpace=wrap;html=1;align=center;" vertex="1" parent="1">
          <mxGeometry x="50" y="570" width="60" height="24.5" as="geometry" />
        </mxCell>
        <mxCell id="tli_p0ZEPbEqmwboCu_G-41" value="pagados" style="ellipse;whiteSpace=wrap;html=1;align=center;" vertex="1" parent="1">
          <mxGeometry x="80" y="594.5" width="60" height="30" as="geometry" />
        </mxCell>
        <mxCell id="tli_p0ZEPbEqmwboCu_G-61" style="edgeStyle=orthogonalEdgeStyle;rounded=0;orthogonalLoop=1;jettySize=auto;html=1;exitX=0.5;exitY=1;exitDx=0;exitDy=0;entryX=0;entryY=0.5;entryDx=0;entryDy=0;endArrow=none;endFill=0;" edge="1" parent="1" source="tli_p0ZEPbEqmwboCu_G-49" target="tli_p0ZEPbEqmwboCu_G-17">
          <mxGeometry relative="1" as="geometry" />
        </mxCell>
        <mxCell id="tli_p0ZEPbEqmwboCu_G-64" style="edgeStyle=orthogonalEdgeStyle;rounded=0;orthogonalLoop=1;jettySize=auto;html=1;exitX=1;exitY=0.5;exitDx=0;exitDy=0;endArrow=none;endFill=0;" edge="1" parent="1" source="tli_p0ZEPbEqmwboCu_G-49">
          <mxGeometry relative="1" as="geometry">
            <mxPoint x="340" y="690" as="targetPoint" />
          </mxGeometry>
        </mxCell>
        <mxCell id="tli_p0ZEPbEqmwboCu_G-66" style="edgeStyle=orthogonalEdgeStyle;rounded=0;orthogonalLoop=1;jettySize=auto;html=1;exitX=1;exitY=0;exitDx=0;exitDy=0;entryX=0;entryY=0.5;entryDx=0;entryDy=0;endArrow=none;endFill=0;" edge="1" parent="1" source="tli_p0ZEPbEqmwboCu_G-49" target="tli_p0ZEPbEqmwboCu_G-62">
          <mxGeometry relative="1" as="geometry" />
        </mxCell>
        <mxCell id="tli_p0ZEPbEqmwboCu_G-49" value="compra" style="shape=rhombus;perimeter=rhombusPerimeter;whiteSpace=wrap;html=1;align=center;fillColor=#d5e8d4;strokeColor=#82b366;" vertex="1" parent="1">
          <mxGeometry x="190" y="650" width="100" height="55.5" as="geometry" />
        </mxCell>
        <mxCell id="tli_p0ZEPbEqmwboCu_G-60" style="edgeStyle=orthogonalEdgeStyle;rounded=0;orthogonalLoop=1;jettySize=auto;html=1;exitX=0.5;exitY=1;exitDx=0;exitDy=0;entryX=1;entryY=0.5;entryDx=0;entryDy=0;endArrow=none;endFill=0;" edge="1" parent="1" source="tli_p0ZEPbEqmwboCu_G-50" target="tli_p0ZEPbEqmwboCu_G-17">
          <mxGeometry relative="1" as="geometry" />
        </mxCell>
        <mxCell id="tli_p0ZEPbEqmwboCu_G-50" value="provee" style="shape=rhombus;perimeter=rhombusPerimeter;whiteSpace=wrap;html=1;align=center;fillColor=#d5e8d4;strokeColor=#82b366;" vertex="1" parent="1">
          <mxGeometry x="447" y="650" width="105" height="55.5" as="geometry" />
        </mxCell>
        <mxCell id="tli_p0ZEPbEqmwboCu_G-53" value="nombre" style="ellipse;whiteSpace=wrap;html=1;align=center;" vertex="1" parent="1">
          <mxGeometry x="570" y="520" width="60" height="30" as="geometry" />
        </mxCell>
        <mxCell id="tli_p0ZEPbEqmwboCu_G-55" value="país" style="ellipse;whiteSpace=wrap;html=1;align=center;" vertex="1" parent="1">
          <mxGeometry x="560" y="555" width="60" height="30" as="geometry" />
        </mxCell>
        <mxCell id="tli_p0ZEPbEqmwboCu_G-67" style="edgeStyle=orthogonalEdgeStyle;rounded=0;orthogonalLoop=1;jettySize=auto;html=1;exitX=1;exitY=0.5;exitDx=0;exitDy=0;entryX=0;entryY=0;entryDx=0;entryDy=0;endArrow=none;endFill=0;" edge="1" parent="1" source="tli_p0ZEPbEqmwboCu_G-62" target="tli_p0ZEPbEqmwboCu_G-50">
          <mxGeometry relative="1" as="geometry" />
        </mxCell>
        <mxCell id="tli_p0ZEPbEqmwboCu_G-62" value="fecha" style="ellipse;whiteSpace=wrap;html=1;align=center;" vertex="1" parent="1">
          <mxGeometry x="340" y="641" width="60" height="30" as="geometry" />
        </mxCell>
        <mxCell id="tli_p0ZEPbEqmwboCu_G-65" style="edgeStyle=orthogonalEdgeStyle;rounded=0;orthogonalLoop=1;jettySize=auto;html=1;exitX=1;exitY=0.5;exitDx=0;exitDy=0;entryX=0;entryY=0.5;entryDx=0;entryDy=0;endArrow=none;endFill=0;" edge="1" parent="1" source="tli_p0ZEPbEqmwboCu_G-63" target="tli_p0ZEPbEqmwboCu_G-50">
          <mxGeometry relative="1" as="geometry" />
        </mxCell>
        <mxCell id="tli_p0ZEPbEqmwboCu_G-63" value="entidad" style="ellipse;whiteSpace=wrap;html=1;align=center;" vertex="1" parent="1">
          <mxGeometry x="341" y="675.5" width="60" height="30" as="geometry" />
        </mxCell>
        <mxCell id="tli_p0ZEPbEqmwboCu_G-70" style="edgeStyle=orthogonalEdgeStyle;rounded=0;orthogonalLoop=1;jettySize=auto;html=1;exitX=1;exitY=0;exitDx=0;exitDy=0;entryX=0;entryY=1;entryDx=0;entryDy=0;endArrow=none;endFill=0;" edge="1" parent="1" source="tli_p0ZEPbEqmwboCu_G-68" target="tli_p0ZEPbEqmwboCu_G-50">
          <mxGeometry relative="1" as="geometry" />
        </mxCell>
        <mxCell id="tli_p0ZEPbEqmwboCu_G-68" value="&lt;u&gt;ID&lt;/u&gt;" style="ellipse;whiteSpace=wrap;html=1;align=center;fillColor=#ffe6cc;strokeColor=#d79b00;" vertex="1" parent="1">
          <mxGeometry x="430" y="700" width="40" height="30" as="geometry" />
        </mxCell>
        <mxCell id="tli_p0ZEPbEqmwboCu_G-71" style="edgeStyle=orthogonalEdgeStyle;rounded=0;orthogonalLoop=1;jettySize=auto;html=1;exitX=0;exitY=0;exitDx=0;exitDy=0;entryX=1;entryY=1;entryDx=0;entryDy=0;endArrow=none;endFill=0;" edge="1" parent="1" source="tli_p0ZEPbEqmwboCu_G-69" target="tli_p0ZEPbEqmwboCu_G-49">
          <mxGeometry relative="1" as="geometry" />
        </mxCell>
        <mxCell id="tli_p0ZEPbEqmwboCu_G-69" value="&lt;u&gt;ID&lt;/u&gt;" style="ellipse;whiteSpace=wrap;html=1;align=center;fillColor=#ffe6cc;strokeColor=#d79b00;" vertex="1" parent="1">
          <mxGeometry x="260" y="700" width="40" height="30" as="geometry" />
        </mxCell>
        <mxCell id="tli_p0ZEPbEqmwboCu_G-80" style="edgeStyle=orthogonalEdgeStyle;rounded=0;orthogonalLoop=1;jettySize=auto;html=1;exitX=0.5;exitY=0;exitDx=0;exitDy=0;entryX=0.5;entryY=1;entryDx=0;entryDy=0;endArrow=none;endFill=0;" edge="1" parent="1" source="tli_p0ZEPbEqmwboCu_G-72" target="tli_p0ZEPbEqmwboCu_G-17">
          <mxGeometry relative="1" as="geometry" />
        </mxCell>
        <mxCell id="tli_p0ZEPbEqmwboCu_G-72" value="&lt;u&gt;código&lt;/u&gt;" style="ellipse;whiteSpace=wrap;html=1;align=center;fillColor=#ffe6cc;strokeColor=#d79b00;" vertex="1" parent="1">
          <mxGeometry x="345" y="990" width="50" height="30" as="geometry" />
        </mxCell>
        <mxCell id="tli_p0ZEPbEqmwboCu_G-73" value="descripción" style="ellipse;whiteSpace=wrap;html=1;align=center;" vertex="1" parent="1">
          <mxGeometry x="409" y="970" width="70" height="30" as="geometry" />
        </mxCell>
        <mxCell id="tli_p0ZEPbEqmwboCu_G-74" value="precio" style="ellipse;whiteSpace=wrap;html=1;align=center;" vertex="1" parent="1">
          <mxGeometry x="261" y="970" width="60" height="30" as="geometry" />
        </mxCell>
        <mxCell id="tli_p0ZEPbEqmwboCu_G-79" style="edgeStyle=orthogonalEdgeStyle;rounded=0;orthogonalLoop=1;jettySize=auto;html=1;exitX=0;exitY=0.5;exitDx=0;exitDy=0;entryX=0.89;entryY=1;entryDx=0;entryDy=0;entryPerimeter=0;endArrow=none;endFill=0;" edge="1" parent="1" source="tli_p0ZEPbEqmwboCu_G-73" target="tli_p0ZEPbEqmwboCu_G-17">
          <mxGeometry relative="1" as="geometry" />
        </mxCell>
        <mxCell id="tli_p0ZEPbEqmwboCu_G-81" style="edgeStyle=orthogonalEdgeStyle;rounded=0;orthogonalLoop=1;jettySize=auto;html=1;exitX=1;exitY=0.5;exitDx=0;exitDy=0;entryX=0.09;entryY=1.025;entryDx=0;entryDy=0;entryPerimeter=0;endArrow=none;endFill=0;" edge="1" parent="1" source="tli_p0ZEPbEqmwboCu_G-74" target="tli_p0ZEPbEqmwboCu_G-17">
          <mxGeometry relative="1" as="geometry" />
        </mxCell>
        <mxCell id="tli_p0ZEPbEqmwboCu_G-82" value="0:N" style="text;html=1;strokeColor=none;fillColor=none;align=center;verticalAlign=middle;whiteSpace=wrap;rounded=0;" vertex="1" parent="1">
          <mxGeometry x="490" y="740" width="60" height="30" as="geometry" />
        </mxCell>
        <mxCell id="tli_p0ZEPbEqmwboCu_G-83" value="1:1" style="text;html=1;strokeColor=none;fillColor=none;align=center;verticalAlign=middle;whiteSpace=wrap;rounded=0;" vertex="1" parent="1">
          <mxGeometry x="490" y="594.5" width="60" height="30" as="geometry" />
        </mxCell>
        <mxCell id="tli_p0ZEPbEqmwboCu_G-84" value="&lt;b&gt;1:N&lt;/b&gt;" style="text;html=1;strokeColor=none;fillColor=none;align=center;verticalAlign=middle;whiteSpace=wrap;rounded=0;" vertex="1" parent="1">
          <mxGeometry x="540" y="662.75" width="60" height="30" as="geometry" />
        </mxCell>
        <mxCell id="tli_p0ZEPbEqmwboCu_G-85" value="&lt;b&gt;1:1&lt;/b&gt;" style="text;html=1;strokeColor=none;fillColor=none;align=center;verticalAlign=middle;whiteSpace=wrap;rounded=0;" vertex="1" parent="1">
          <mxGeometry x="290" y="370" width="60" height="30" as="geometry" />
        </mxCell>
        <mxCell id="tli_p0ZEPbEqmwboCu_G-86" value="0:1" style="text;html=1;strokeColor=none;fillColor=none;align=center;verticalAlign=middle;whiteSpace=wrap;rounded=0;" vertex="1" parent="1">
          <mxGeometry x="447" y="474.75" width="60" height="30" as="geometry" />
        </mxCell>
        <mxCell id="tli_p0ZEPbEqmwboCu_G-87" value="0:1" style="text;html=1;strokeColor=none;fillColor=none;align=center;verticalAlign=middle;whiteSpace=wrap;rounded=0;" vertex="1" parent="1">
          <mxGeometry x="240" y="475" width="60" height="30" as="geometry" />
        </mxCell>
        <mxCell id="tli_p0ZEPbEqmwboCu_G-88" value="0:N" style="text;html=1;strokeColor=none;fillColor=none;align=center;verticalAlign=middle;whiteSpace=wrap;rounded=0;" vertex="1" parent="1">
          <mxGeometry x="180" y="739" width="60" height="30" as="geometry" />
        </mxCell>
        <mxCell id="tli_p0ZEPbEqmwboCu_G-90" value="&lt;b&gt;1:N&lt;/b&gt;" style="text;html=1;strokeColor=none;fillColor=none;align=center;verticalAlign=middle;whiteSpace=wrap;rounded=0;" vertex="1" parent="1">
          <mxGeometry x="180" y="611" width="60" height="30" as="geometry" />
        </mxCell>
        <mxCell id="tli_p0ZEPbEqmwboCu_G-91" value="&lt;b&gt;N:M&lt;/b&gt;" style="text;html=1;strokeColor=none;fillColor=none;align=center;verticalAlign=middle;whiteSpace=wrap;rounded=0;" vertex="1" parent="1">
          <mxGeometry x="135" y="662" width="60" height="30" as="geometry" />
        </mxCell>
      </root>
    </mxGraphModel>
  </diagram>
</mxfile>
